<svg width="74" height="45" viewBox="0 0 74 45" fill="none" xmlns="http://www.w3.org/2000/svg">
<mask id="path-1-inside-1" fill="white">
<path fill-rule="evenodd" clip-rule="evenodd" d="M60.8318 43.9738C58.8818 42.9927 59.7118 41.1716 60.4948 40.3258C61.7198 39.0058 64.0598 38.4241 64.8298 38.1073C66.6148 37.3719 68.5018 34.2644 67.1408 32.8263C65.1908 30.769 58.7138 29.4394 56.5428 27.6759C56.3458 28.3143 55.9248 29.0535 55.3958 29.545C53.2028 31.5764 48.7328 32.2628 47.0248 33.3956C46.6068 33.6721 45.5868 34.4823 44.5578 35.0045C43.5658 35.5095 42.2428 35.9175 41.3978 34.9402C41.1318 34.634 40.9648 34.3191 40.8778 34.0071C39.3898 34.6849 37.4518 34.8778 35.4588 35.425C34.4348 35.7053 32.9238 36.0855 31.4748 36.4839C30.2048 36.8343 29.0368 37.1837 28.3288 37.4727C28.3868 38.1773 28.3938 38.7476 28.3178 39.0452C28.3028 39.1018 28.2758 39.1517 28.2368 39.1959C27.6778 39.8218 25.9978 40.4113 23.9488 40.8663C21.8438 41.3338 19.2028 41.6861 16.5788 41.7428C13.1948 41.8167 9.35183 41.5402 6.23283 41.0141C3.25183 40.5092 0.606827 39.7412 0.0378271 38.6026C0.00182709 38.5316 -0.00917288 38.45 0.00782712 38.3722C0.650827 35.2743 1.26583 32.4212 1.99483 29.4173C2.01483 29.3405 2.05783 29.2724 2.12183 29.2205C3.21683 28.3373 6.44283 27.8679 7.71083 27.6768C7.65783 27.4426 7.60983 27.2093 7.56683 26.9751C7.49983 27.0058 7.42283 27.0173 7.34383 27.0039C6.76883 26.9127 6.09583 26.8388 5.41083 26.7322C4.72483 26.6247 4.01083 26.4836 3.37683 26.2522C3.17983 26.1812 3.08083 25.9681 3.15483 25.7799C3.23083 25.5908 3.45083 25.4948 3.64783 25.5668C4.20783 25.7722 4.86183 25.9037 5.53283 26.0084C6.19883 26.112 6.87383 26.1879 7.45883 26.2791C7.41083 25.9056 7.37583 25.5312 7.35583 25.1588C6.82083 25.0407 6.10083 24.8036 5.40283 24.5473C4.67683 24.2794 3.94883 23.9818 3.42883 23.7495C3.23683 23.665 3.15383 23.4461 3.24283 23.2628C3.33083 23.0794 3.55883 22.9997 3.74983 23.0842C4.25483 23.3098 4.96583 23.6017 5.67583 23.8618C6.28283 24.0865 6.87683 24.2823 7.33483 24.3984C7.32883 20.929 8.55283 17.6247 10.6688 15.1584L11.3678 14.4096L11.8518 13.5754C12.3918 12.6173 13.0378 11.4221 13.6698 10.4401C14.3468 9.38885 15.2278 8.21189 16.1518 8.03813L16.4738 8.02565L16.5328 8.02853L16.5498 8.02949L16.8158 8.04869C17.9358 8.27909 18.3958 9.93029 18.7488 11.2647C21.2128 7.79525 24.1108 5.46053 27.9008 3.23909C33.8738 -0.26011 42.9728 -0.91867 48.1798 1.23653C52.6978 3.10661 56.4748 6.80261 58.3798 10.8039C59.6428 13.4583 59.8678 17.282 59.0908 20.5661C59.0868 20.5824 59.0818 20.5988 59.0758 20.6141C58.5708 21.9025 60.4888 24.0096 63.3678 25.13C64.8448 25.705 67.2828 26.8474 68.1078 27.1853C74.6328 29.8589 75.3648 35.0842 71.2338 39.9946C69.3258 42.2621 63.9838 45.5569 60.8318 43.9738ZM70.6388 39.5338C74.4958 34.9508 73.8068 30.3168 67.8078 27.8592C66.8658 27.4724 64.6008 26.401 63.0808 25.8087C60.6548 24.865 58.2598 22.9297 58.2248 21.1201L58.3478 20.4048C59.0958 17.2378 58.8628 13.5841 57.6838 11.1073C55.8558 7.26725 52.2168 3.70469 47.8778 1.90949C42.9228 -0.140111 34.0838 0.474289 28.2978 3.86501C24.4688 6.10757 21.6088 8.44325 19.1788 11.9645C19.1288 12.0356 19.0588 12.0855 18.9808 12.1105C18.9878 12.1345 18.9948 12.1585 19.0028 12.1805L19.1288 12.5089L19.5998 12.5348C21.2788 12.6404 24.2688 12.9351 26.4468 13.8173L27.1908 14.1783L27.4938 13.9392C28.2068 13.4045 29.4448 12.6164 30.6388 11.9972C31.8808 11.354 34.1608 10.297 34.5728 11.5805C35.1988 13.5226 33.8948 17.3088 33.5918 19.0781C33.5578 19.2788 33.3618 19.4141 33.1538 19.3805C32.9458 19.3479 32.8048 19.1597 32.8388 18.9591C33.1708 17.0218 34.3848 13.4804 33.8428 11.7975C33.8378 11.7802 33.7808 11.616 33.1138 11.7754C32.5428 11.9108 31.7898 12.2343 31.0018 12.6423C29.4148 13.4641 27.8488 14.5402 27.5428 14.8666C27.4198 14.9972 27.2178 15.026 27.0598 14.9338C24.7918 13.5985 20.4698 13.3018 18.8418 13.2279C18.7038 13.2212 18.5798 13.1434 18.5178 13.0244C17.8968 11.8167 17.6128 8.70245 16.5128 8.75621C16.4868 8.75717 16.4618 8.75621 16.4358 8.75237C15.9848 8.68709 15.2338 9.40805 14.3198 10.826C13.4588 12.1613 12.6848 13.6983 12.0128 14.8052C11.9968 14.8311 11.9778 14.8551 11.9558 14.8762C9.79683 16.9988 8.41883 19.9815 8.14883 23.2013C8.27583 23.2186 8.38983 23.2983 8.44483 23.4192C8.85983 24.3485 9.57083 24.7037 10.3898 24.7709C11.2448 24.842 12.2178 24.5962 13.0748 24.2832C13.2708 24.2112 13.4908 24.3063 13.5668 24.4954C13.6418 24.6836 13.5418 24.8967 13.3458 24.9677C12.4598 25.2932 11.3548 25.5869 10.3248 25.5015C9.46583 25.4314 8.66183 25.0925 8.09983 24.3265C8.09183 26.5719 8.62583 28.8951 9.80783 31.0925C9.90383 31.2721 9.83083 31.4938 9.64383 31.586C9.45683 31.6791 9.22583 31.609 9.12883 31.4295C8.59383 30.4349 8.18483 29.4144 7.89383 28.3872C7.87883 28.392 7.86383 28.3949 7.84783 28.3968C6.37183 28.6215 3.80783 29.0401 2.79383 29.6564L2.70783 29.7169L2.21283 31.8077C1.87283 33.2784 1.55283 34.7386 1.23483 36.2353L0.787827 38.3636L0.932827 38.546C1.59983 39.1613 3.52883 39.8132 6.36583 40.2922C9.43183 40.8087 13.2248 41.0833 16.5608 41.0103C19.1308 40.9537 21.7198 40.609 23.7768 40.1521C25.6328 39.7402 26.9388 39.2564 27.4758 38.8762L27.5878 38.7783L27.6068 38.6305C27.6218 38.3674 27.6058 37.9738 27.5638 37.4909C27.5508 37.4737 27.5398 37.4554 27.5298 37.4353C27.4738 37.3287 27.4778 37.2087 27.5288 37.1098C27.4518 36.3687 27.3288 35.4721 27.1748 34.5351C26.8278 32.4269 26.4408 30.7844 26.2908 30.5482L26.2638 30.5242C26.1768 30.409 26.1638 30.2506 26.2448 30.1191C26.3538 29.9453 26.5878 29.8887 26.7678 29.9933C26.8658 30.049 26.9198 30.1306 26.9418 30.1652C27.1118 30.434 27.3388 31.3268 27.5538 32.3799C27.8018 32.1351 28.0898 31.9479 28.4018 31.8029C28.8498 31.5927 29.3478 31.4708 29.8498 31.394C30.8338 31.2433 31.8968 31.2615 32.7228 31.1885C32.9328 31.1703 33.1188 31.3191 33.1378 31.5207C33.1568 31.7213 33.0018 31.9009 32.7918 31.9191C31.9298 31.994 30.9018 31.9757 29.9688 32.1188C29.0428 32.2599 28.3018 32.5469 27.8828 33.1508C27.8428 33.2074 27.7888 33.2496 27.7288 33.2775C27.7998 33.6615 27.8678 34.0503 27.9288 34.4218C28.0538 35.185 28.1708 35.9857 28.2538 36.7105C29.0288 36.4167 30.1358 36.0913 31.2648 35.7802C32.7048 35.3837 34.2468 34.9949 35.2478 34.7194C37.4308 34.1213 39.4178 33.9495 40.8148 33.2151C40.8778 32.6477 41.1608 32.114 41.5388 31.6743C42.0868 31.0349 42.8918 30.5185 43.6508 30.3207L43.7508 30.3015L43.3448 29.6112C41.9498 27.3293 42.1948 24.674 44.1058 23.0007C44.2618 22.8625 44.5038 22.874 44.6448 23.0237C44.7888 23.1735 44.7768 23.4049 44.6208 23.5412C43.0198 24.9447 42.7608 27.2055 44.0078 29.2465L44.6968 30.4205C44.8428 30.673 44.6428 30.9821 44.3428 30.9668C43.7398 30.9361 42.7648 31.3978 42.1278 32.1409C41.5118 32.858 41.3168 33.6999 41.9848 34.4717C42.4178 34.9729 43.1738 34.8788 44.2008 34.3575C45.1808 33.8593 46.0828 33.1287 46.5898 32.7917C48.5348 31.5025 52.7988 30.9322 54.8638 29.018C55.5558 28.3776 55.9508 27.2746 55.8968 26.9146C55.8678 26.7149 56.0128 26.5277 56.2208 26.4999C56.3638 26.4807 56.4988 26.5392 56.5798 26.642C56.6168 26.6688 56.6488 26.7015 56.6758 26.7409C57.8758 28.5764 65.1758 29.6631 67.7058 32.3338C69.6808 34.4189 66.9718 38.0218 65.1298 38.7812C64.1588 39.1815 62.1398 39.6548 61.0658 40.8145C60.3118 41.6285 60.0058 42.7306 61.1858 43.3239C63.7758 44.6257 68.7308 41.8013 70.6388 39.5338ZM8.15883 32.2705C6.57883 32.0228 4.86483 31.6234 4.04583 31.1031C3.86983 30.9917 3.82083 30.7642 3.93683 30.5953C4.05383 30.4273 4.29083 30.3812 4.46683 30.4925C4.77483 30.6874 5.30183 30.8881 5.98983 31.0743C6.66583 31.2577 7.46183 31.418 8.28283 31.5476C11.2578 32.0161 15.8268 32.2858 18.9558 31.9642C19.6108 31.896 20.7208 31.6849 21.7918 31.442C22.8698 31.1991 23.8638 30.9351 24.2938 30.7709C24.4898 30.697 24.7118 30.7901 24.7888 30.9783C24.8668 31.1665 24.7708 31.3796 24.5748 31.4535C24.0838 31.6397 23.0368 31.9143 21.9678 32.1562C20.8918 32.3991 19.7418 32.6209 19.0368 32.6929C15.8218 33.0241 11.1818 32.7476 8.15883 32.2705ZM13.8148 27.5098C13.7718 27.3706 13.7858 27.2161 13.8758 27.0471C14.3398 25.9757 16.6068 26.7591 17.3338 27.3754C17.5538 27.5607 17.4108 27.6788 17.1628 27.9572C16.5588 28.633 14.0808 28.3719 13.8148 27.5098ZM19.5668 25.6589C19.4998 25.4679 19.6088 25.2596 19.8078 25.1952C20.0078 25.1319 20.2248 25.2356 20.2918 25.4276C20.6218 26.3799 21.5168 26.7533 22.5158 26.7495C23.5818 26.7456 24.7638 26.3021 25.5458 25.5869C25.6978 25.4468 25.9398 25.4525 26.0848 25.5994C26.2308 25.7453 26.2258 25.9767 26.0718 26.1178C25.1458 26.9655 23.7738 27.4781 22.5188 27.4829C21.2118 27.4877 20.0088 26.9338 19.5668 25.6589Z"/>
</mask>
<path fill-rule="evenodd" clip-rule="evenodd" d="M60.8318 43.9738C58.8818 42.9927 59.7118 41.1716 60.4948 40.3258C61.7198 39.0058 64.0598 38.4241 64.8298 38.1073C66.6148 37.3719 68.5018 34.2644 67.1408 32.8263C65.1908 30.769 58.7138 29.4394 56.5428 27.6759C56.3458 28.3143 55.9248 29.0535 55.3958 29.545C53.2028 31.5764 48.7328 32.2628 47.0248 33.3956C46.6068 33.6721 45.5868 34.4823 44.5578 35.0045C43.5658 35.5095 42.2428 35.9175 41.3978 34.9402C41.1318 34.634 40.9648 34.3191 40.8778 34.0071C39.3898 34.6849 37.4518 34.8778 35.4588 35.425C34.4348 35.7053 32.9238 36.0855 31.4748 36.4839C30.2048 36.8343 29.0368 37.1837 28.3288 37.4727C28.3868 38.1773 28.3938 38.7476 28.3178 39.0452C28.3028 39.1018 28.2758 39.1517 28.2368 39.1959C27.6778 39.8218 25.9978 40.4113 23.9488 40.8663C21.8438 41.3338 19.2028 41.6861 16.5788 41.7428C13.1948 41.8167 9.35183 41.5402 6.23283 41.0141C3.25183 40.5092 0.606827 39.7412 0.0378271 38.6026C0.00182709 38.5316 -0.00917288 38.45 0.00782712 38.3722C0.650827 35.2743 1.26583 32.4212 1.99483 29.4173C2.01483 29.3405 2.05783 29.2724 2.12183 29.2205C3.21683 28.3373 6.44283 27.8679 7.71083 27.6768C7.65783 27.4426 7.60983 27.2093 7.56683 26.9751C7.49983 27.0058 7.42283 27.0173 7.34383 27.0039C6.76883 26.9127 6.09583 26.8388 5.41083 26.7322C4.72483 26.6247 4.01083 26.4836 3.37683 26.2522C3.17983 26.1812 3.08083 25.9681 3.15483 25.7799C3.23083 25.5908 3.45083 25.4948 3.64783 25.5668C4.20783 25.7722 4.86183 25.9037 5.53283 26.0084C6.19883 26.112 6.87383 26.1879 7.45883 26.2791C7.41083 25.9056 7.37583 25.5312 7.35583 25.1588C6.82083 25.0407 6.10083 24.8036 5.40283 24.5473C4.67683 24.2794 3.94883 23.9818 3.42883 23.7495C3.23683 23.665 3.15383 23.4461 3.24283 23.2628C3.33083 23.0794 3.55883 22.9997 3.74983 23.0842C4.25483 23.3098 4.96583 23.6017 5.67583 23.8618C6.28283 24.0865 6.87683 24.2823 7.33483 24.3984C7.32883 20.929 8.55283 17.6247 10.6688 15.1584L11.3678 14.4096L11.8518 13.5754C12.3918 12.6173 13.0378 11.4221 13.6698 10.4401C14.3468 9.38885 15.2278 8.21189 16.1518 8.03813L16.4738 8.02565L16.5328 8.02853L16.5498 8.02949L16.8158 8.04869C17.9358 8.27909 18.3958 9.93029 18.7488 11.2647C21.2128 7.79525 24.1108 5.46053 27.9008 3.23909C33.8738 -0.26011 42.9728 -0.91867 48.1798 1.23653C52.6978 3.10661 56.4748 6.80261 58.3798 10.8039C59.6428 13.4583 59.8678 17.282 59.0908 20.5661C59.0868 20.5824 59.0818 20.5988 59.0758 20.6141C58.5708 21.9025 60.4888 24.0096 63.3678 25.13C64.8448 25.705 67.2828 26.8474 68.1078 27.1853C74.6328 29.8589 75.3648 35.0842 71.2338 39.9946C69.3258 42.2621 63.9838 45.5569 60.8318 43.9738ZM70.6388 39.5338C74.4958 34.9508 73.8068 30.3168 67.8078 27.8592C66.8658 27.4724 64.6008 26.401 63.0808 25.8087C60.6548 24.865 58.2598 22.9297 58.2248 21.1201L58.3478 20.4048C59.0958 17.2378 58.8628 13.5841 57.6838 11.1073C55.8558 7.26725 52.2168 3.70469 47.8778 1.90949C42.9228 -0.140111 34.0838 0.474289 28.2978 3.86501C24.4688 6.10757 21.6088 8.44325 19.1788 11.9645C19.1288 12.0356 19.0588 12.0855 18.9808 12.1105C18.9878 12.1345 18.9948 12.1585 19.0028 12.1805L19.1288 12.5089L19.5998 12.5348C21.2788 12.6404 24.2688 12.9351 26.4468 13.8173L27.1908 14.1783L27.4938 13.9392C28.2068 13.4045 29.4448 12.6164 30.6388 11.9972C31.8808 11.354 34.1608 10.297 34.5728 11.5805C35.1988 13.5226 33.8948 17.3088 33.5918 19.0781C33.5578 19.2788 33.3618 19.4141 33.1538 19.3805C32.9458 19.3479 32.8048 19.1597 32.8388 18.9591C33.1708 17.0218 34.3848 13.4804 33.8428 11.7975C33.8378 11.7802 33.7808 11.616 33.1138 11.7754C32.5428 11.9108 31.7898 12.2343 31.0018 12.6423C29.4148 13.4641 27.8488 14.5402 27.5428 14.8666C27.4198 14.9972 27.2178 15.026 27.0598 14.9338C24.7918 13.5985 20.4698 13.3018 18.8418 13.2279C18.7038 13.2212 18.5798 13.1434 18.5178 13.0244C17.8968 11.8167 17.6128 8.70245 16.5128 8.75621C16.4868 8.75717 16.4618 8.75621 16.4358 8.75237C15.9848 8.68709 15.2338 9.40805 14.3198 10.826C13.4588 12.1613 12.6848 13.6983 12.0128 14.8052C11.9968 14.8311 11.9778 14.8551 11.9558 14.8762C9.79683 16.9988 8.41883 19.9815 8.14883 23.2013C8.27583 23.2186 8.38983 23.2983 8.44483 23.4192C8.85983 24.3485 9.57083 24.7037 10.3898 24.7709C11.2448 24.842 12.2178 24.5962 13.0748 24.2832C13.2708 24.2112 13.4908 24.3063 13.5668 24.4954C13.6418 24.6836 13.5418 24.8967 13.3458 24.9677C12.4598 25.2932 11.3548 25.5869 10.3248 25.5015C9.46583 25.4314 8.66183 25.0925 8.09983 24.3265C8.09183 26.5719 8.62583 28.8951 9.80783 31.0925C9.90383 31.2721 9.83083 31.4938 9.64383 31.586C9.45683 31.6791 9.22583 31.609 9.12883 31.4295C8.59383 30.4349 8.18483 29.4144 7.89383 28.3872C7.87883 28.392 7.86383 28.3949 7.84783 28.3968C6.37183 28.6215 3.80783 29.0401 2.79383 29.6564L2.70783 29.7169L2.21283 31.8077C1.87283 33.2784 1.55283 34.7386 1.23483 36.2353L0.787827 38.3636L0.932827 38.546C1.59983 39.1613 3.52883 39.8132 6.36583 40.2922C9.43183 40.8087 13.2248 41.0833 16.5608 41.0103C19.1308 40.9537 21.7198 40.609 23.7768 40.1521C25.6328 39.7402 26.9388 39.2564 27.4758 38.8762L27.5878 38.7783L27.6068 38.6305C27.6218 38.3674 27.6058 37.9738 27.5638 37.4909C27.5508 37.4737 27.5398 37.4554 27.5298 37.4353C27.4738 37.3287 27.4778 37.2087 27.5288 37.1098C27.4518 36.3687 27.3288 35.4721 27.1748 34.5351C26.8278 32.4269 26.4408 30.7844 26.2908 30.5482L26.2638 30.5242C26.1768 30.409 26.1638 30.2506 26.2448 30.1191C26.3538 29.9453 26.5878 29.8887 26.7678 29.9933C26.8658 30.049 26.9198 30.1306 26.9418 30.1652C27.1118 30.434 27.3388 31.3268 27.5538 32.3799C27.8018 32.1351 28.0898 31.9479 28.4018 31.8029C28.8498 31.5927 29.3478 31.4708 29.8498 31.394C30.8338 31.2433 31.8968 31.2615 32.7228 31.1885C32.9328 31.1703 33.1188 31.3191 33.1378 31.5207C33.1568 31.7213 33.0018 31.9009 32.7918 31.9191C31.9298 31.994 30.9018 31.9757 29.9688 32.1188C29.0428 32.2599 28.3018 32.5469 27.8828 33.1508C27.8428 33.2074 27.7888 33.2496 27.7288 33.2775C27.7998 33.6615 27.8678 34.0503 27.9288 34.4218C28.0538 35.185 28.1708 35.9857 28.2538 36.7105C29.0288 36.4167 30.1358 36.0913 31.2648 35.7802C32.7048 35.3837 34.2468 34.9949 35.2478 34.7194C37.4308 34.1213 39.4178 33.9495 40.8148 33.2151C40.8778 32.6477 41.1608 32.114 41.5388 31.6743C42.0868 31.0349 42.8918 30.5185 43.6508 30.3207L43.7508 30.3015L43.3448 29.6112C41.9498 27.3293 42.1948 24.674 44.1058 23.0007C44.2618 22.8625 44.5038 22.874 44.6448 23.0237C44.7888 23.1735 44.7768 23.4049 44.6208 23.5412C43.0198 24.9447 42.7608 27.2055 44.0078 29.2465L44.6968 30.4205C44.8428 30.673 44.6428 30.9821 44.3428 30.9668C43.7398 30.9361 42.7648 31.3978 42.1278 32.1409C41.5118 32.858 41.3168 33.6999 41.9848 34.4717C42.4178 34.9729 43.1738 34.8788 44.2008 34.3575C45.1808 33.8593 46.0828 33.1287 46.5898 32.7917C48.5348 31.5025 52.7988 30.9322 54.8638 29.018C55.5558 28.3776 55.9508 27.2746 55.8968 26.9146C55.8678 26.7149 56.0128 26.5277 56.2208 26.4999C56.3638 26.4807 56.4988 26.5392 56.5798 26.642C56.6168 26.6688 56.6488 26.7015 56.6758 26.7409C57.8758 28.5764 65.1758 29.6631 67.7058 32.3338C69.6808 34.4189 66.9718 38.0218 65.1298 38.7812C64.1588 39.1815 62.1398 39.6548 61.0658 40.8145C60.3118 41.6285 60.0058 42.7306 61.1858 43.3239C63.7758 44.6257 68.7308 41.8013 70.6388 39.5338ZM8.15883 32.2705C6.57883 32.0228 4.86483 31.6234 4.04583 31.1031C3.86983 30.9917 3.82083 30.7642 3.93683 30.5953C4.05383 30.4273 4.29083 30.3812 4.46683 30.4925C4.77483 30.6874 5.30183 30.8881 5.98983 31.0743C6.66583 31.2577 7.46183 31.418 8.28283 31.5476C11.2578 32.0161 15.8268 32.2858 18.9558 31.9642C19.6108 31.896 20.7208 31.6849 21.7918 31.442C22.8698 31.1991 23.8638 30.9351 24.2938 30.7709C24.4898 30.697 24.7118 30.7901 24.7888 30.9783C24.8668 31.1665 24.7708 31.3796 24.5748 31.4535C24.0838 31.6397 23.0368 31.9143 21.9678 32.1562C20.8918 32.3991 19.7418 32.6209 19.0368 32.6929C15.8218 33.0241 11.1818 32.7476 8.15883 32.2705ZM13.8148 27.5098C13.7718 27.3706 13.7858 27.2161 13.8758 27.0471C14.3398 25.9757 16.6068 26.7591 17.3338 27.3754C17.5538 27.5607 17.4108 27.6788 17.1628 27.9572C16.5588 28.633 14.0808 28.3719 13.8148 27.5098ZM19.5668 25.6589C19.4998 25.4679 19.6088 25.2596 19.8078 25.1952C20.0078 25.1319 20.2248 25.2356 20.2918 25.4276C20.6218 26.3799 21.5168 26.7533 22.5158 26.7495C23.5818 26.7456 24.7638 26.3021 25.5458 25.5869C25.6978 25.4468 25.9398 25.4525 26.0848 25.5994C26.2308 25.7453 26.2258 25.9767 26.0718 26.1178C25.1458 26.9655 23.7738 27.4781 22.5188 27.4829C21.2118 27.4877 20.0088 26.9338 19.5668 25.6589Z" fill="#EE5C5C" stroke="#EE5C5C" stroke-width="2" mask="url(#path-1-inside-1)"/>
</svg>
